<svg width="811" height="626" viewBox="0 0 811 626" fill="none" xmlns="http://www.w3.org/2000/svg">
<path d="M201.954 625.74C193.113 625.74 188.136 624.254 185.462 622.174C170.232 610.659 133.309 614.893 97.6497 619.053C56.5669 623.808 17.787 628.265 4.78614 611.773C-0.785676 604.79 -1.08284 594.76 3.82036 581.165C18.3814 540.454 68.7506 493.502 108.348 461.334C157.305 421.588 206.857 390.238 228.253 378.797L228.773 379.763L228.253 378.797C292.738 344.474 349.644 314.609 392.362 296.928C437.456 278.281 465.464 273.452 483.219 281.253C493.62 285.785 500.381 294.699 503.946 308.369C508.924 327.387 518.953 341.057 535.594 351.383C550.675 360.744 569.917 366.613 590.272 372.705C614.863 380.134 642.796 388.603 669.095 405.096C673.478 407.844 675.558 411.485 675.336 415.868C674.593 426.937 658.1 442.687 626.304 462.671C598.296 480.278 558.847 500.857 512.193 522.252C446.074 552.489 369.926 582.279 308.339 601.818C250.763 620.094 219.115 625.74 201.954 625.74ZM150.693 612.516C166.072 612.516 178.998 614.522 186.799 620.391C197.274 628.266 241.328 620.762 307.67 599.664C369.109 580.125 445.257 550.409 511.227 520.247C611.297 474.409 671.77 435.332 673.107 415.794C673.33 412.302 671.621 409.405 667.906 407.102C641.905 390.758 614.12 382.363 589.604 374.934C548.447 362.453 512.936 351.755 501.792 308.963C498.375 295.962 492.06 287.568 482.328 283.333C445.925 267.36 362.422 310.003 229.219 380.803C207.972 392.095 158.494 423.371 109.759 463.043C70.3107 495.062 20.3129 541.717 5.9005 581.908C1.29447 594.76 1.51734 604.047 6.56912 610.361C18.8271 625.814 58.7956 621.208 97.5011 616.75C115.851 614.745 134.572 612.516 150.693 612.516Z" fill="white" fill-opacity="0.05"/>
<path d="M207.08 618.31C200.32 618.31 195.342 617.345 192.445 615.264C178.404 604.938 144.75 608.801 112.285 612.516C74.471 616.825 38.8113 620.911 26.7762 605.755C21.6502 599.366 21.353 590.228 25.6619 577.822C32.9424 556.129 52.1094 528.939 81.0828 499.296C105.747 474.038 137.024 447.664 166.889 426.937C198.24 405.616 223.647 390.757 230.63 386.746C295.189 352.201 342.661 327.685 379.732 312.604C420.146 296.185 446.594 291.876 462.938 299.008C472.744 303.317 479.208 311.638 482.551 324.564C487.157 342.023 496.295 354.652 511.524 364.236C525.342 372.928 542.875 378.351 561.448 384.146C583.809 391.055 609.142 398.93 633.064 414.085C637.224 416.834 639.156 420.325 638.784 424.56C636.556 452.939 531.434 504.274 486.34 525.001C380.772 573.513 252.992 618.31 207.08 618.31ZM160.797 606.498C174.764 606.498 186.576 608.281 193.708 613.556C214.732 628.934 365.097 578.416 485.448 523.07C578.683 480.204 635.219 443.281 636.704 424.337C637.001 420.845 635.441 418.097 631.95 415.794C608.325 400.787 583.141 392.986 560.853 386.077C523.262 374.414 490.797 364.384 480.545 325.084C477.35 312.826 471.333 304.952 462.121 300.94C427.947 286.007 348.679 325.976 231.67 388.603C224.687 392.615 199.354 407.399 168.077 428.646C138.287 449.299 107.159 475.598 82.5687 500.708C53.8181 530.201 34.8739 557.095 27.6677 578.491C23.5817 590.154 23.8046 598.623 28.4106 604.418C39.7771 618.682 76.4768 614.447 112.062 610.361C128.926 608.504 146.087 606.498 160.797 606.498Z" fill="white" fill-opacity="0.05"/>
<path d="M212.652 611.03C206.634 611.03 202.103 610.138 199.502 608.281C186.65 599.143 156.265 602.561 126.92 605.904C92.4493 609.841 59.8356 613.482 48.7662 599.664C44.0859 593.869 43.7145 585.623 47.5776 574.405C53.818 554.272 71.1278 527.824 96.2381 500.039C119.565 474.186 147.722 449.299 173.501 431.84C190.959 420.474 207.08 410.668 220.007 402.718C225.058 399.672 229.367 396.998 233.008 394.695C280.628 368.99 329.809 343.137 367.028 328.279C403.357 313.792 427.353 310.152 442.434 316.69C451.72 320.701 457.812 328.576 461.006 340.686C470.144 375.454 499.043 384.666 532.548 395.364C552.681 401.753 575.489 409.033 596.959 422.777C605.353 428.72 602.159 437.041 597.924 442.984C575.934 474.186 475.196 523.218 395.63 555.683C323.642 585.251 245.488 611.03 212.652 611.03ZM171.123 600.406C183.678 600.406 194.005 602.041 200.617 606.721C214.732 616.602 294.669 594.983 394.962 554.049C441.914 534.882 487.082 513.858 522.073 494.913C561.373 473.592 587.078 455.316 596.439 442.093C601.862 434.366 601.713 428.646 595.993 424.634C574.82 411.039 552.087 403.833 532.103 397.444C498.077 386.597 468.658 377.237 459.298 341.428C456.252 329.913 450.531 322.484 441.839 318.695C412.049 305.769 348.53 334.742 234.122 396.552C230.482 398.781 226.173 401.455 221.121 404.576C208.194 412.451 192.148 422.257 174.689 433.623C149.059 451.007 120.977 475.821 97.7982 501.525C72.8365 529.161 55.7496 555.312 49.5834 575.148C45.9432 585.623 46.2404 593.274 50.4006 598.549C60.8014 611.55 94.3808 607.761 126.846 604.047C142.596 602.189 158.048 600.406 171.123 600.406Z" fill="white" fill-opacity="0.05"/>
<path d="M217.852 603.675C212.875 603.675 208.863 603.007 206.486 601.372C194.822 593.423 167.78 596.469 141.556 599.366C111.691 602.709 80.8599 606.127 70.7564 593.646C66.5961 588.446 66.1503 581.091 69.4934 571.136C80.4142 531.984 133.161 467.946 180.187 436.818C188.062 431.989 195.491 427.457 202.771 423.074C216.069 415.051 227.584 408.142 235.459 402.793L235.534 402.718C291.103 372.408 326.614 354.875 354.399 344.103C386.641 331.622 408.186 328.576 422.078 334.519C430.919 338.308 436.639 345.663 439.611 357.029C447.857 388.454 473.784 396.998 503.724 406.879C521.553 412.748 541.835 419.434 560.853 431.84C567.168 436.669 567.317 443.355 561.225 451.825C552.236 464.454 528.834 481.392 493.546 500.857C462.344 518.018 422.227 537.036 380.475 554.272C339.689 571.136 300.167 585.177 269.187 593.943C252.026 598.772 231.299 603.675 217.852 603.675ZM181.227 594.389C192.371 594.389 201.657 595.8 207.526 599.812C213.989 604.121 235.756 601.372 268.816 592.086C299.795 583.319 339.244 569.278 379.881 552.489C450.086 523.515 539.383 479.461 559.887 450.71C565.311 443.133 565.311 437.412 559.887 433.252C541.092 420.994 520.959 414.382 503.204 408.513C472.744 398.484 446.371 389.792 437.902 357.401C435.079 346.629 429.656 339.645 421.409 336.079C393.253 323.97 332.26 351.903 236.425 404.13C228.476 409.479 217.035 416.462 203.663 424.486C196.457 428.869 188.953 433.4 181.153 438.155C134.498 469.209 82.0486 532.727 71.2764 571.581C68.0819 580.942 68.3791 587.777 72.1679 592.457C81.6028 604.195 111.988 600.778 141.333 597.509C155.597 595.949 169.489 594.389 181.227 594.389Z" fill="white" fill-opacity="0.05"/>
<path d="M223.276 596.32C219.041 596.32 215.624 595.726 213.544 594.389C203.143 587.628 179.295 590.229 156.191 592.754C129.446 595.726 101.81 598.772 92.7466 587.554C89.0321 582.948 88.5863 576.485 91.4094 567.718C95.4954 550.632 108.645 525.893 126.549 501.674C145.567 475.895 167.558 454.053 186.873 441.721L192.594 438.452C210.646 428.126 227.733 418.319 237.911 410.816L237.985 410.742C332.26 358.664 378.172 342.246 401.648 352.275C409.969 355.841 415.392 362.676 418.215 373.299C425.644 401.307 448.451 409.182 474.973 418.319C490.574 423.668 508.255 429.76 524.897 440.83L524.971 440.904C530.766 445.733 530.691 452.345 524.674 460.665C505.284 487.41 429.73 525.744 365.468 552.637C330.106 567.421 295.635 579.902 268.519 587.703C253.363 591.937 235.088 596.32 223.276 596.32ZM191.331 588.371C201.063 588.371 209.16 589.56 214.509 592.977C226.099 600.258 289.395 582.651 364.948 550.929C401.351 535.699 436.416 518.835 463.681 503.531C494.437 486.221 515.165 470.992 523.485 459.477C528.908 451.899 529.131 446.253 524.079 442.018C507.661 431.172 490.054 425.08 474.527 419.731C447.56 410.445 424.307 402.495 416.729 373.596C414.055 363.493 408.929 357.029 401.128 353.686C374.606 342.394 317.105 368.842 238.951 412.079C228.699 419.657 211.612 429.463 193.485 439.789L187.839 443.058C168.746 455.242 146.905 477.009 128.035 502.64C110.279 526.71 97.2041 551.226 93.1924 568.164C90.5179 576.41 90.8151 582.354 94.1581 586.514C102.702 596.989 129.892 594.017 156.117 591.12C168.672 589.708 180.93 588.371 191.331 588.371Z" fill="white" fill-opacity="0.05"/>
<path d="M228.773 589.04C225.133 589.04 222.384 588.52 220.601 587.48C211.389 581.834 190.81 584.062 170.9 586.217C147.276 588.743 122.834 591.417 114.737 581.462C111.468 577.45 111.022 571.879 113.325 564.375C119.12 533.767 156.117 469.432 193.485 446.55C211.389 437.189 229.739 427.309 240.288 418.691L240.362 418.617C317.402 375.305 359.525 360.67 381.069 369.733C388.944 373.076 394.07 379.465 396.745 389.42C403.282 414.085 423.118 421.217 446.074 429.537C459.446 434.366 474.602 439.864 488.791 449.522L488.865 449.596C494.214 454.499 493.917 461.111 487.9 469.283C469.921 493.725 405.065 527.453 350.387 550.78C304.401 570.541 250.986 589.04 228.773 589.04ZM201.434 582.354C209.755 582.354 216.738 583.319 221.344 586.142C231.745 592.234 285.828 576.782 349.867 549.443C404.397 526.19 469.03 492.685 486.785 468.466C492.283 460.962 492.729 455.168 487.974 450.859C473.933 441.35 458.926 435.926 445.628 431.097C422.227 422.628 402.094 415.273 395.333 389.866C392.807 380.431 387.978 374.339 380.549 371.219C359.451 362.378 317.848 376.939 241.254 419.954C230.556 428.646 212.206 438.527 194.302 447.887C157.305 470.546 120.606 534.436 114.885 564.747V564.821C112.656 571.804 113.028 576.93 116 580.496C123.577 589.783 147.573 587.183 170.826 584.657C181.673 583.468 192.371 582.354 201.434 582.354Z" fill="white" fill-opacity="0.05"/>
<path d="M234.197 581.685C231.374 581.685 229.071 581.314 227.585 580.496C219.636 576.039 202.326 577.896 185.61 579.605C165.106 581.759 143.933 583.988 136.727 575.37C133.904 572.027 133.458 567.198 135.241 560.958C138.584 534.436 168.226 469.877 200.171 451.453C213.544 445.287 232.414 436.001 242.666 426.714L242.814 426.64C303.51 391.723 340.878 379.242 360.417 387.266C367.846 390.312 372.823 396.552 375.349 405.69C380.995 426.937 397.785 433.475 417.249 440.978C428.393 445.287 440.948 450.19 452.76 458.437L452.835 458.511C457.738 463.563 457.218 470.249 451.2 478.346C443.845 488.227 428.616 500.114 405.883 513.635C386.047 525.447 361.68 537.705 335.455 549.22C297.418 565.935 252.844 581.685 234.197 581.685ZM211.612 576.336C218.521 576.336 224.39 577.079 228.328 579.308C237.614 584.137 282.486 570.987 335.009 547.957C403.728 517.869 439.537 491.867 450.16 477.529C455.658 470.1 456.326 464.008 451.943 459.551C440.279 451.379 428.319 446.773 416.804 442.241C396.968 434.515 379.881 427.903 374.012 405.987C371.635 397.147 367.029 391.426 359.897 388.529C340.804 380.654 303.881 393.061 243.632 427.754C233.231 437.189 214.212 446.476 200.84 452.642C169.266 470.917 139.921 534.882 136.653 561.255V561.404C134.944 567.198 135.315 571.507 137.841 574.553C144.527 582.577 165.329 580.422 185.462 578.268C194.822 577.302 203.886 576.336 211.612 576.336Z" fill="white" fill-opacity="0.05"/>
<path d="M177.81 574.702C169.192 574.702 162.134 573.439 158.717 569.427C156.339 566.678 155.819 562.741 157.157 557.763C157.974 534.882 179.667 470.769 206.857 456.431H206.932C224.984 449.447 237.837 442.167 245.117 434.812L245.266 434.738C290.583 407.844 322.305 397.741 339.541 404.65C346.673 407.547 351.576 413.416 353.879 422.034C358.708 439.938 372.452 445.733 388.35 452.568C397.191 456.356 407.294 460.665 416.655 467.5L416.729 467.574C421.186 472.849 420.444 479.609 414.352 487.781C401.945 504.348 366.954 526.71 320.597 547.734C301.207 556.501 281.891 564.004 266.29 568.833C254.775 572.399 239.917 576.113 234.493 573.736C227.733 570.467 213.766 571.879 200.245 573.216C192.593 573.885 184.719 574.702 177.81 574.702ZM207.452 457.471C191.702 465.791 179.295 490.53 173.278 504.497C164.957 523.813 158.865 545.728 158.494 557.838V557.986C157.231 562.667 157.677 566.084 159.757 568.61C165.552 575.37 183.233 573.587 200.32 571.879C214.658 570.393 228.179 569.056 235.236 572.473C252.026 579.902 385.527 524.407 413.535 486.964C419.181 479.461 419.998 473.22 415.986 468.466C406.7 461.705 397.191 457.619 387.978 453.682C371.783 446.773 357.742 440.83 352.765 422.331C350.536 414.085 345.93 408.513 339.169 405.839C322.305 399.004 290.955 409.107 246.083 435.778C238.579 443.133 225.653 450.487 207.452 457.471Z" fill="white" fill-opacity="0.05"/>
<path d="M196.977 567.718C189.696 567.718 183.679 566.678 180.707 563.335C178.775 561.181 178.255 558.135 179.073 554.346C178.181 544.317 181.673 522.995 187.245 504.794C191.405 491.125 200.394 467.277 213.544 461.26H213.618C222.459 458.734 238.654 452.939 247.569 442.687L247.717 442.613C279.068 423 303.51 415.719 318.294 421.44C325.426 424.188 330.18 429.835 332.483 438.155C336.421 452.642 347.119 457.842 359.525 463.934C366.509 467.351 373.715 470.843 380.698 476.341L380.847 476.489C384.858 482.135 383.818 489.193 377.726 497.365C367.177 511.48 340.432 529.756 306.184 546.1C276.022 560.512 248.832 569.204 241.7 566.753C236.202 564.598 226.024 565.564 215.252 566.604C208.938 567.124 202.623 567.718 196.977 567.718ZM213.989 462.3C192.074 472.403 178.627 536.888 180.261 554.346V554.42V554.495C179.444 557.986 179.89 560.661 181.599 562.518C186.502 568.09 201.063 566.678 215.178 565.341C226.099 564.301 236.425 563.261 242.146 565.49C248.98 567.793 276.319 558.952 305.739 544.837C339.838 528.567 366.434 510.514 376.835 496.473C382.555 488.747 383.67 482.21 380.029 477.009C373.12 471.586 365.988 468.169 359.154 464.826C346.524 458.659 335.604 453.385 331.518 438.378C329.289 430.355 324.757 425.006 317.997 422.405C303.584 416.759 279.514 424.04 248.46 443.43C239.323 453.905 222.979 459.7 213.989 462.3Z" fill="white" fill-opacity="0.05"/>
<path d="M216.218 560.809C210.275 560.809 205.297 559.992 202.697 557.318C201.211 555.758 200.617 553.677 200.988 551.077C198.76 543.5 199.428 523.515 202.4 505.611C207.526 474.855 215.772 467.723 220.23 466.163H220.304C233.008 464.231 244.151 458.437 250.02 450.71L250.169 450.562C273.793 434.441 288.354 434.515 296.378 437.412C303.584 440.012 308.636 445.881 311.087 454.351C314.208 465.494 321.785 470.1 330.626 475.375C335.232 478.198 340.061 481.021 344.667 485.181L344.741 485.33C348.233 491.645 347.044 499.074 341.027 507.468C321.414 534.733 259.827 561.849 248.683 559.695C244.597 558.655 237.688 559.324 230.407 559.918C225.579 560.364 220.601 560.809 216.218 560.809ZM220.527 467.129C213.321 469.654 207.08 483.77 203.44 505.76C200.468 523.664 199.8 543.5 202.028 550.854V550.929V551.003C201.657 553.38 202.177 555.163 203.44 556.575C207.6 560.958 219.71 559.844 230.333 558.878C237.688 558.209 244.671 557.615 248.906 558.655C254.478 559.695 272.902 553.157 291.623 543.351C314.282 531.539 331.963 518.241 340.209 506.8C345.93 498.851 347.193 491.793 343.924 485.85C339.392 481.838 334.638 479.015 330.106 476.266C321.117 470.843 313.316 466.163 310.122 454.648C307.819 446.476 302.915 440.904 296.081 438.378C288.28 435.555 274.091 435.481 250.837 451.305C244.746 459.254 233.453 465.123 220.527 467.129Z" fill="white" fill-opacity="0.05"/>
<path d="M235.831 553.975C231.15 553.975 227.064 553.38 224.761 551.449C223.647 550.483 223.053 549.294 222.904 547.808C216.812 538.299 215.178 491.199 221.938 476.118C223.35 473.072 224.984 471.363 226.99 471.066H227.064H227.139C235.013 471.363 246.38 468.243 252.546 458.659L252.62 458.585C260.495 452.122 267.701 449.893 274.239 451.825C281.074 453.905 286.794 460.962 289.692 470.62C291.92 478.421 296.601 482.655 301.578 487.113C303.955 489.267 306.407 491.422 308.71 494.17L308.784 494.319C311.83 502.12 310.493 510.44 304.773 519.206C292.515 538.002 264.061 552.489 255.815 552.786C253.512 552.786 250.466 553.009 247.197 553.306C243.483 553.603 239.471 553.975 235.831 553.975ZM227.064 471.883C225.43 472.106 224.018 473.666 222.755 476.415C219.71 483.25 218.149 497.514 218.595 514.452C219.041 530.127 221.121 543.351 223.796 547.363L223.87 547.437V547.586C223.944 548.849 224.464 549.889 225.43 550.706C229.219 553.975 239.174 553.083 247.197 552.34C250.466 552.043 253.586 551.746 255.889 551.82C263.987 551.523 292.069 537.185 304.104 518.612C309.602 510.143 310.939 502.045 308.041 494.616C305.738 492.016 303.361 489.787 301.058 487.707C296.006 483.175 291.252 478.867 288.949 470.843C286.126 461.408 280.554 454.648 274.016 452.642C267.85 450.785 260.867 452.939 253.289 459.179C246.751 468.986 235.162 472.18 227.064 471.883Z" fill="white" fill-opacity="0.05"/>
<path d="M255.295 547.288C251.135 547.288 247.346 546.1 245.043 544.54C240.511 541.568 236.202 525.67 233.676 511.777C231.225 498.256 229.516 481.615 231.745 477.084C232.413 475.672 233.305 475.746 233.825 475.895C240.437 478.049 249.872 475.969 254.998 466.534C255.964 464.826 256.929 464.008 258.044 464.083C261.535 464.454 264.507 474.409 266.959 482.433C267.404 483.993 267.85 485.478 268.296 486.741C280.257 523.515 273.942 538.002 266.513 543.648C263.021 546.248 259.009 547.288 255.295 547.288ZM233.305 476.638C233.008 476.638 232.711 476.786 232.413 477.455C230.63 481.17 231.522 495.508 234.419 511.629C237.539 528.864 241.923 541.494 245.489 543.871C249.649 546.62 259.084 548.328 266.067 543.054C273.273 537.556 279.439 523.367 267.627 486.964C267.256 485.701 266.81 484.215 266.29 482.655C264.21 475.672 261.015 465.123 258.044 464.826C257.301 464.751 256.484 465.42 255.666 466.906C250.317 476.712 240.511 478.792 233.602 476.638C233.453 476.638 233.379 476.638 233.305 476.638Z" fill="white" fill-opacity="0.05"/>
<path d="M504.244 264.612C500.678 264.612 497.112 264.315 493.471 263.646C474.379 260.229 457.812 248.416 442.805 236.084C432.107 227.318 407.368 228.803 383.447 230.215C359.674 231.627 337.238 232.964 331.592 223.38C328.843 218.7 330.254 211.939 335.975 202.876C380.029 133.191 465.315 84.5306 529.205 56.0029C601.193 23.835 675.113 4.22217 710.995 1.39911C756.684 -2.16685 804.899 0.65621 809.653 14.8458C811.436 20.0461 807.128 25.9894 797.024 32.4527C758.913 56.8201 606.171 193.07 560.185 237.496C541.538 255.697 523.114 264.612 504.244 264.612ZM409.969 226.946C424.455 226.946 437.085 228.506 444.217 234.375C459.001 246.485 475.27 258.223 493.843 261.491C515.684 265.355 536.857 257.034 558.699 236.01C604.759 191.584 757.65 55.1114 795.835 30.6697C804.825 24.875 808.911 19.6747 807.499 15.663C803.784 4.66791 763.296 -0.383862 711.144 3.70214C675.484 6.4509 601.788 26.0637 530.097 58.0831C466.578 86.4622 381.589 134.826 337.906 204.065C332.706 212.311 331.22 218.403 333.523 222.266C338.501 230.661 360.268 229.398 383.372 227.986C392.362 227.466 401.499 226.946 409.969 226.946Z" fill="white" fill-opacity="0.05"/>
<path d="M509.147 253.839C505.804 253.839 502.461 253.542 499.118 252.948C481.511 249.828 466.132 238.758 452.092 227.318C442.137 219.22 419.106 220.631 396.819 222.043C374.68 223.38 353.805 224.717 348.53 215.803C345.93 211.419 347.267 205.179 352.616 196.784C393.476 131.928 472.819 86.685 532.177 60.0888C599.113 30.1496 667.907 11.8741 701.263 9.34816C743.683 6.07936 788.406 8.75383 792.864 21.9776C794.498 26.8065 790.561 32.3783 781.126 38.3959C745.763 61.0546 603.868 187.572 561.076 228.803C543.618 245.593 526.531 253.839 509.147 253.839ZM421.929 218.923C435.227 218.923 446.817 220.409 453.429 225.757C481.734 248.788 515.536 269.812 559.665 227.318C602.456 186.012 744.5 59.3459 780.011 36.6129C788.406 31.264 792.121 26.4351 790.858 22.6462C787.441 12.4684 749.849 7.71376 701.412 11.4283C668.278 13.9542 599.782 32.1555 533.069 62.0204C473.933 88.468 394.888 133.488 354.325 197.898C349.496 205.476 348.159 211.196 350.313 214.762C354.919 222.563 375.2 221.3 396.671 219.963C405.214 219.443 413.832 218.923 421.929 218.923Z" fill="white" fill-opacity="0.05"/>
<path d="M513.976 243.142C510.93 243.142 507.809 242.844 504.689 242.324C487.751 239.278 473.413 228.506 461.303 218.7C452.091 211.197 430.696 212.608 410.117 213.945C388.795 215.357 370.371 216.545 365.468 208.299C363.091 204.287 364.279 198.567 369.183 190.767C406.848 130.74 480.248 88.8394 535.148 64.2492C597.033 36.5387 660.626 19.6746 691.456 17.2973C730.533 14.3257 771.839 16.7773 775.925 29.0353C777.411 33.567 773.771 38.6931 765.079 44.2649C732.391 65.2149 601.342 182 561.893 220.037C545.698 235.49 530.022 243.142 513.976 243.142ZM433.816 210.899C445.925 210.899 456.474 212.237 462.492 217.14C474.453 226.798 488.568 237.421 504.986 240.319C523.633 243.662 541.76 236.604 560.333 218.626C599.856 180.514 731.054 63.5805 763.816 42.6305C771.542 37.653 775.034 33.1956 773.845 29.7039C770.725 20.269 736.031 15.8858 691.382 19.3032C660.7 21.6062 597.404 38.4702 535.743 66.0321C481.065 90.4738 408.111 132.151 370.668 191.807C366.285 198.79 365.022 204.065 366.954 207.333C371.189 214.465 389.984 213.277 409.82 212.014C417.992 211.419 426.238 210.899 433.816 210.899Z" fill="white" fill-opacity="0.05"/>
<path d="M518.805 232.369C515.982 232.369 513.084 232.072 510.261 231.552C494.957 228.729 481.659 218.923 470.515 209.934C462.046 203.099 442.359 204.436 423.341 205.699C403.728 207.036 386.79 208.151 382.258 200.647C380.029 197.007 381.144 191.732 385.601 184.6C420.146 129.402 487.454 90.9196 537.897 68.3352C594.804 42.8534 653.197 27.4009 681.502 25.2465C717.31 22.572 755.124 24.875 758.838 36.093C760.25 40.2532 756.832 44.9336 748.883 50.0596C718.87 69.301 598.667 176.354 562.488 211.197C547.852 225.46 533.44 232.369 518.805 232.369ZM445.702 202.876C456.623 202.876 466.132 204.139 471.63 208.522C482.625 217.363 495.626 227.095 510.558 229.769C527.571 232.889 544.138 226.352 561.225 209.934C597.479 175.017 717.83 67.8152 747.918 48.5738C755.05 44.0421 758.244 39.8818 757.13 36.6873C754.232 27.9953 722.51 23.9835 681.65 27.0295C653.494 29.1096 595.398 44.5621 538.715 69.9696C488.494 92.4797 421.483 130.814 387.235 185.641C383.224 192.03 382.109 196.858 383.892 199.83C387.83 206.368 405.065 205.179 423.266 203.99C430.844 203.396 438.57 202.876 445.702 202.876Z" fill="white" fill-opacity="0.05"/>
<path d="M523.634 221.671C521.033 221.671 518.433 221.449 515.833 220.929C502.089 218.403 489.98 209.488 479.728 201.241C471.927 195.075 454.023 196.338 436.639 197.601C418.735 198.864 403.282 199.979 399.196 193.144C397.19 189.801 398.156 185.046 402.242 178.583C433.593 128.214 494.957 93.0739 540.869 72.4954C592.724 49.2423 645.916 35.1271 671.695 33.2698C704.235 30.8925 738.557 33.0469 741.974 43.2991C743.237 47.0879 740.191 51.3968 732.837 56.0771C705.498 73.5354 596.141 170.856 563.231 202.579C549.933 215.357 536.932 221.671 523.634 221.671ZM457.589 194.852C467.395 194.852 475.865 195.967 480.768 199.904C503.649 218.18 528.76 233.335 562.042 201.316C595.027 169.594 704.532 72.1239 731.945 54.5913C738.408 50.431 741.38 46.7164 740.34 43.7448C737.74 35.87 708.915 32.1554 671.844 34.9042C646.214 36.7615 593.244 50.8024 541.612 73.9812C495.849 94.4855 434.782 129.476 403.654 179.474C400.014 185.269 399.048 189.578 400.608 192.327C404.174 198.27 419.849 197.155 436.49 195.967C443.697 195.372 450.903 194.852 457.589 194.852Z" fill="white" fill-opacity="0.05"/>
<path d="M528.463 210.899C526.085 210.899 523.782 210.676 521.405 210.231C509.221 207.928 498.672 200.276 488.94 192.549C481.882 186.978 464.944 188.315 449.937 189.429C433.742 190.692 419.775 191.732 416.061 185.64C414.278 182.669 415.095 178.36 418.735 172.491C446.966 126.951 502.312 95.2283 543.767 76.5813C590.644 55.557 638.636 42.8533 661.815 41.1446C691.011 38.9901 721.842 40.996 724.962 50.2824C726.076 53.6997 723.328 57.6372 716.716 61.8717C692.125 77.6957 593.616 165.285 563.974 193.812C552.013 205.253 540.349 210.899 528.463 210.899ZM469.401 186.829C478.019 186.829 485.448 187.869 489.906 191.286C499.489 198.864 509.89 206.442 521.702 208.671C535.52 211.271 548.967 205.996 562.859 192.624C592.576 164.096 691.234 76.3585 715.898 60.5345C721.767 56.7457 724.368 53.4026 723.476 50.7281C721.099 43.5962 695.246 40.2531 661.889 42.6304C638.785 44.2648 591.016 56.9685 544.361 77.9186C503.129 96.5656 448.08 128.065 420.072 173.308C416.803 178.508 415.912 182.372 417.398 184.823C420.592 190.172 434.782 189.058 449.789 187.869C456.475 187.349 463.235 186.829 469.401 186.829Z" fill="white" fill-opacity="0.05"/>
<path d="M533.366 200.202C531.286 200.202 529.131 199.979 526.977 199.607C516.353 197.601 507.29 191.064 498.152 183.932C491.837 179.029 476.682 180.217 463.235 181.332C448.823 182.52 436.342 183.56 432.999 178.137C431.364 175.463 432.107 171.674 435.302 166.473C460.338 125.762 509.667 97.3829 546.664 80.7418C588.49 61.9462 631.281 50.654 652.008 49.1682C677.936 47.3109 705.275 49.1682 708.023 57.4144C709.064 60.5347 706.538 64.0263 700.669 67.8152C678.753 81.8561 591.09 159.713 564.642 185.046C554.093 195.15 543.841 200.202 533.366 200.202ZM481.213 178.806C488.717 178.806 495.106 179.697 498.969 182.669C514.347 194.63 535.371 211.122 563.676 183.932C590.124 158.599 677.936 80.5932 699.926 66.5522C705.126 63.2091 707.503 60.1632 706.761 57.7859C704.68 51.4712 681.725 48.351 652.157 50.5054C631.578 51.9912 589.01 63.2091 547.332 81.9304C510.484 98.5716 461.378 126.728 436.565 167.142C433.742 171.748 432.924 175.165 434.262 177.32C437.159 182 449.788 180.96 463.161 179.846C469.327 179.326 475.567 178.806 481.213 178.806Z" fill="white" fill-opacity="0.05"/>
<path d="M538.12 189.355C525.862 189.355 515.684 181.555 507.364 175.091C501.792 170.782 488.345 171.971 476.533 173.085C463.829 174.2 452.834 175.24 449.863 170.485C448.451 168.182 449.12 164.839 451.868 160.307C473.71 124.425 517.096 99.4631 549.561 84.8278C586.335 68.261 624.001 58.3803 642.127 57.1173C664.786 55.5572 688.634 57.2659 691.085 64.5464C691.977 67.2952 689.822 70.4154 684.548 73.7585C665.38 86.0165 588.489 154.141 565.385 176.28C555.356 185.938 546.292 189.355 538.12 189.355ZM493.026 170.857C499.34 170.857 504.838 171.674 508.107 174.2C522.371 185.121 540.126 198.79 564.493 175.463C587.672 153.175 664.638 84.9764 683.953 72.6441C688.559 69.6725 690.639 67.0723 689.971 64.9179C688.113 59.3461 668.129 56.5973 642.35 58.3803C624.298 59.6432 586.855 69.5239 550.23 86.0165C517.765 100.577 474.676 125.391 452.983 161.05C450.531 165.062 449.863 168.034 450.977 169.891C453.503 173.977 464.647 172.937 476.459 171.897C482.105 171.302 487.9 170.857 493.026 170.857Z" fill="white" fill-opacity="0.05"/>
<path d="M543.023 178.657C532.846 178.657 524.228 172.194 516.724 166.548L516.576 166.399C511.673 162.759 500.083 163.873 489.831 164.913C478.836 166.028 469.327 166.993 466.801 162.907C465.538 160.976 466.132 158.079 468.435 154.215C487.157 123.162 524.451 101.543 552.533 88.9137C584.329 74.5756 616.794 66.0321 632.395 65.0663C651.711 63.8034 672.141 65.3635 674.221 71.6039C675.038 73.9812 673.107 76.6557 668.575 79.5531C652.008 90.1767 585.963 148.569 566.128 167.588C557.584 175.685 549.932 178.657 543.023 178.657ZM504.764 162.759C509.964 162.759 514.496 163.427 517.244 165.508L517.393 165.656C530.245 175.314 544.806 186.235 565.311 166.696C585.221 147.678 651.339 89.2109 667.906 78.6616C671.918 76.1357 673.701 73.8327 673.107 71.9754C671.547 67.2208 654.46 64.7692 632.47 66.1807C616.943 67.2208 584.701 75.6899 553.053 89.9538C525.194 102.509 488.048 123.979 469.475 154.81C467.395 158.227 466.875 160.753 467.841 162.313C470.07 165.805 480.099 164.765 489.831 163.799C494.883 163.353 500.158 162.759 504.764 162.759Z" fill="white" fill-opacity="0.05"/>
<path d="M547.927 167.885C539.68 167.885 532.771 162.833 526.679 158.376L525.788 157.707C521.628 154.661 511.821 155.776 503.129 156.816C493.843 157.856 485.894 158.747 483.665 155.404C482.625 153.77 483.071 151.467 484.928 148.198C513.678 99.7602 599.262 74.427 622.515 73.0155C631.43 72.4954 639.75 72.644 645.916 73.6098C652.602 74.5756 656.466 76.3586 657.208 78.7359C657.877 80.816 656.243 83.0447 652.454 85.4963C638.636 94.337 583.438 142.997 566.871 158.821C559.813 165.508 553.573 167.885 547.927 167.885ZM516.502 154.735C520.662 154.735 524.153 155.255 526.382 156.89L527.274 157.558C537.749 165.21 549.561 173.902 566.202 158.079C582.843 142.255 638.116 93.5198 651.934 84.6791C655.277 82.5247 656.763 80.5931 656.317 79.1073C654.98 75.0956 640.864 73.0155 622.589 74.1298C599.41 75.4671 514.347 100.577 485.819 148.718C484.111 151.541 483.665 153.621 484.482 154.884C486.339 157.707 494.809 156.741 502.981 155.85C507.661 155.255 512.341 154.735 516.502 154.735Z" fill="white" fill-opacity="0.05"/>
<path d="M552.756 157.187C546.589 157.187 541.389 153.472 536.56 150.055C536.04 149.684 535.594 149.312 535.074 149.015C531.657 146.638 523.633 147.678 516.502 148.644C508.85 149.684 502.386 150.575 500.603 147.826C499.786 146.563 500.083 144.706 501.569 142.106C524.451 102.36 593.764 82.0047 612.708 80.9646C624.521 80.296 638.859 81.1875 640.344 85.7935C640.865 87.5022 639.602 89.3595 636.407 91.3653C625.263 98.4972 580.912 137.426 567.614 150.055C562.042 155.33 557.139 157.187 552.756 157.187ZM528.091 146.712C531.137 146.712 533.811 147.158 535.52 148.346C536.04 148.718 536.486 149.015 537.006 149.386C545.475 155.33 554.167 161.496 566.945 149.386C580.317 136.757 624.743 97.7543 635.887 90.6224C637.819 89.4337 639.973 87.6508 639.453 86.0907C638.413 82.8961 627.195 81.1132 612.708 81.8561C593.913 82.8961 525.045 103.103 502.238 142.552C500.975 144.78 500.603 146.415 501.272 147.381C502.758 149.609 509.667 148.718 516.279 147.826C520.365 147.232 524.525 146.712 528.091 146.712Z" fill="white" fill-opacity="0.05"/>
<path d="M557.584 146.489C553.35 146.489 549.784 144.038 546.218 141.66C545.549 141.215 544.881 140.769 544.212 140.323C541.538 138.54 535.223 139.58 529.725 140.546C523.931 141.512 518.879 142.329 517.467 140.323C516.799 139.357 517.022 138.02 518.062 136.089C527.274 119.522 546.589 108.007 561.225 101.32C577.791 93.7427 595.027 89.2853 602.827 88.9881C611.594 88.6166 622.217 89.4338 623.332 92.9255C623.778 94.2627 622.737 95.7486 620.286 97.3087C611.891 102.658 578.312 131.854 568.282 141.363C564.271 145.152 560.705 146.489 557.584 146.489ZM539.606 138.614C541.686 138.614 543.469 138.912 544.658 139.654C545.326 140.1 545.995 140.546 546.664 140.992C552.904 145.226 558.773 149.164 567.762 140.695C577.866 131.185 611.445 101.989 619.914 96.5658C621.4 95.6 623.035 94.2627 622.663 93.0741C621.846 90.5482 613.748 89.211 602.902 89.6567C589.009 90.251 535.594 106.001 518.73 136.386C517.839 138.02 517.616 139.209 518.062 139.877C519.176 141.512 524.525 140.62 529.577 139.803C533.068 139.209 536.634 138.614 539.606 138.614Z" fill="white" fill-opacity="0.05"/>
<path d="M52.1837 468.02C50.6236 468.02 49.3606 467.723 48.4691 467.054C46.7604 465.866 46.2404 463.86 46.8347 460.888C49.212 449.67 72.1679 411.188 101.439 369.436C150.025 300.197 179.964 271.521 190.588 262.383C237.019 222.415 281.594 196.561 304.178 196.487H304.253C314.133 196.487 315.173 205.031 316.288 214.094C317.774 226.352 319.482 240.17 339.689 244.108C356.999 247.451 379.212 247.525 398.751 247.525C423.861 247.599 443.622 247.599 446.668 254.434C447.485 256.291 447.485 258.148 446.742 259.931C443.028 268.178 421.632 275.161 374.68 290.539C366.285 293.288 356.851 296.334 346.673 299.751C314.208 310.524 250.317 351.532 188.433 391.278C115.257 438.155 67.7105 467.946 52.1837 468.02ZM304.178 198.716C278.994 198.79 229.739 231.627 191.999 264.092C169.712 283.259 137.321 322.187 103.222 370.699C74.0995 412.228 51.2922 450.339 48.9892 461.334C48.3948 464.231 49.3606 464.974 49.7321 465.197C53.7438 467.946 69.5677 461.483 96.6096 445.882C121.646 431.469 153.516 410.965 187.17 389.346C249.129 349.526 313.168 308.369 345.856 297.597C356.033 294.254 365.468 291.134 373.863 288.385C417.323 274.195 441.319 266.32 444.588 259.04C445.108 257.851 445.108 256.663 444.514 255.325C442.062 249.828 420.964 249.828 398.676 249.754C378.989 249.679 356.702 249.679 339.169 246.262C317.402 242.027 315.545 226.649 313.985 214.317C312.796 204.362 311.756 198.716 304.178 198.716Z" fill="white" fill-opacity="0.05"/>
<path d="M65.9275 453.608C64.4416 453.608 63.253 453.311 62.3615 452.716C60.8014 451.676 60.2071 449.819 60.6528 447.219C61.6929 435.555 85.3174 396.924 108.422 363.716C138.51 320.256 168.82 283.556 189.399 265.429C191.85 263.275 194.376 261.046 196.902 258.966C235.831 226.055 273.793 204.733 293.629 204.585H293.703C302.767 204.585 303.807 212.385 304.921 220.632C306.407 231.701 308.116 244.33 326.614 247.822C342.512 250.868 362.942 250.868 380.995 250.942C403.877 250.942 422.004 251.017 425.124 257.034C426.312 258.817 426.684 260.6 426.09 262.383C423.489 270.109 402.242 277.315 355.736 293.065C350.239 294.922 344.295 296.928 338.055 299.083C308.933 309.038 251.209 345.812 195.342 381.397C126.029 425.526 80.8599 453.608 65.9275 453.608ZM293.703 206.665C274.239 206.813 236.796 227.986 198.24 260.526C195.788 262.606 193.262 264.835 190.81 266.989C144.453 307.849 64.4416 427.755 62.8072 447.442V447.516C62.3615 450.116 63.253 450.71 63.5501 450.933C67.4876 453.533 82.5686 447.442 108.422 432.658C132.344 418.988 162.431 399.821 194.302 379.54C250.243 343.88 308.041 307.032 337.461 297.003C343.701 294.848 349.57 292.917 355.142 290.985C399.642 275.904 421.929 268.326 424.232 261.566C424.604 260.451 424.381 259.263 423.489 258L423.415 257.851C420.964 252.874 401.574 252.874 381.069 252.874C362.942 252.874 342.438 252.874 326.317 249.754C306.333 245.89 304.475 231.998 302.915 220.78C301.652 211.791 300.612 206.665 293.703 206.665Z" fill="white" fill-opacity="0.05"/>
<path d="M79.7456 439.195C78.334 439.195 77.1454 438.898 76.3282 438.378C74.8424 437.412 74.3223 435.778 74.6195 433.549C74.248 426.417 84.7973 402.867 115.479 357.921C135.909 327.982 165.774 288.756 188.285 268.401C190.513 266.395 192.742 264.389 194.971 262.457C229.665 232.444 264.284 212.831 283.08 212.682H283.154C291.475 212.682 292.515 219.74 293.629 227.169C295.115 237.124 296.824 248.416 313.613 251.537C328.174 254.285 346.821 254.285 363.24 254.285C383.967 254.285 400.459 254.285 403.654 259.56C405.362 261.343 406.031 263.052 405.66 264.835C404.025 272.115 383.744 279.247 334.786 296.483L329.586 298.34C303.807 307.403 252.323 339.943 202.548 371.368C136.875 412.822 94.0094 439.195 79.7456 439.195ZM283.228 214.614H283.154C264.804 214.837 230.705 234.153 196.308 263.943C194.079 265.875 191.776 267.881 189.622 269.886C167.26 290.168 137.47 329.245 117.114 359.036C92.3007 395.289 76.031 425.229 76.551 433.475V433.549V433.624C76.2539 435.852 77.0711 436.447 77.3682 436.669C81.2314 439.195 95.6438 433.326 120.383 419.36C143.116 406.507 171.495 388.529 201.583 369.585C251.432 338.085 302.99 305.546 328.991 296.408L334.192 294.551C379.584 278.579 402.391 270.555 403.802 264.315C403.951 263.572 403.951 262.457 402.242 260.749L402.168 260.674L402.094 260.526C399.642 256.143 381.961 256.143 363.314 256.143C346.821 256.143 328.026 256.143 313.316 253.394C295.189 249.977 293.258 237.421 291.697 227.392C290.509 219.22 289.543 214.614 283.228 214.614Z" fill="white" fill-opacity="0.05"/>
<path d="M93.4893 424.783C92.0777 424.783 91.0377 424.56 90.1462 424.04C89.2547 423.446 88.2146 422.257 88.4375 419.88C84.3515 402.198 151.139 305.175 187.17 271.447C189.176 269.589 191.182 267.806 193.113 266.023C224.167 238.387 254.626 221.077 272.605 220.78H272.679C280.182 220.78 281.297 227.021 282.411 233.632C283.897 242.473 285.68 252.428 300.761 255.251C313.91 257.703 330.774 257.628 345.707 257.628C364.354 257.554 379.063 257.554 382.332 262.16C384.784 263.869 385.824 265.578 385.601 267.435C384.784 273.824 368.217 280.436 321.117 297.671C298.681 305.917 253.586 334.074 209.977 361.339C147.722 400.118 107.159 424.783 93.4893 424.783ZM272.753 222.563H272.679C255.369 222.86 224.613 240.393 194.376 267.361C192.445 269.144 190.439 270.926 188.433 272.784C150.47 308.295 86.2831 404.353 90.2205 419.583L90.2948 419.731V419.88C90.1462 421.588 90.7405 422.183 91.1863 422.48C99.8783 427.903 157.825 391.649 209.012 359.704C252.695 332.439 297.863 304.209 320.522 295.888C360.491 281.253 383.075 272.709 383.818 267.138C383.967 266.023 383.075 264.835 381.144 263.497L380.995 263.423L380.921 263.275C378.395 259.411 362.497 259.411 345.707 259.486C330.774 259.486 313.762 259.56 300.464 257.108C284.12 254.062 282.188 242.993 280.702 234.004C279.365 226.649 278.399 222.563 272.753 222.563Z" fill="white" fill-opacity="0.05"/>
<path d="M107.159 410.37C105.896 410.37 104.856 410.148 104.113 409.702C103.296 409.182 102.33 408.216 102.33 406.136C100.621 402.421 102.479 394.769 107.827 383.477C112.582 373.448 120.085 360.596 129.446 346.332C147.796 318.473 170.529 289.573 186.056 274.418C187.839 272.709 189.547 271.075 191.256 269.441C218.075 244.702 245.191 229.101 262.13 228.729C268.964 228.655 270.079 234.152 271.193 240.021C272.679 247.673 274.462 256.365 287.834 258.817C299.646 260.897 314.728 260.897 328.026 260.823C344.518 260.749 357.668 260.674 360.936 264.537C363.165 265.578 365.914 267.286 365.84 269.886C365.617 275.087 354.176 280.881 312.647 296.854C293.555 304.209 254.923 327.982 217.629 351.012C160.277 386.449 120.383 410.37 107.159 410.37ZM262.204 230.512H262.13C249.203 230.809 224.018 241.507 192.37 270.778C190.662 272.412 188.953 274.047 187.17 275.681C171.718 290.762 149.133 319.587 130.858 347.372C110.873 377.757 100.844 399.524 103.964 405.69L104.039 405.913V406.136C103.964 407.622 104.559 408.142 104.93 408.365C113.474 413.416 168.3 379.614 216.738 349.749C255.815 325.605 292.812 302.872 312.053 295.442C346.45 282.219 363.982 274.641 364.131 269.961C364.205 268.772 362.794 267.509 359.971 266.172L359.748 266.098L359.599 265.949C357.073 262.606 342.884 262.68 327.951 262.68C314.579 262.754 299.424 262.829 287.389 260.674C272.827 258.074 270.97 248.342 269.41 240.542C268.296 234.078 267.33 230.512 262.204 230.512Z" fill="white" fill-opacity="0.05"/>
<path d="M120.829 395.958C119.64 395.958 118.748 395.735 118.006 395.364C117.263 394.918 116.371 394.101 116.223 392.466C113.771 389.198 114.588 382.734 118.748 372.779C122.314 364.236 128.406 353.092 136.43 340.611C150.916 317.878 170.901 291.877 184.867 277.464C186.353 275.978 187.839 274.493 189.325 273.007C211.909 251.165 235.757 237.273 251.581 236.901C257.598 236.827 258.712 241.582 259.901 246.633C261.461 253.171 263.17 260.526 274.834 262.606C285.309 264.389 298.607 264.315 310.345 264.24C324.757 264.166 336.198 264.092 339.467 267.286C344.296 268.846 346.45 270.481 346.524 272.635C346.747 277.316 336.049 283.333 304.104 296.334C288.429 302.723 257.97 321.222 225.727 340.834C179.073 369.065 134.721 395.958 120.829 395.958ZM251.729 238.461C251.655 238.461 251.655 238.461 251.581 238.461C236.128 238.907 212.652 252.577 190.365 274.121C188.953 275.533 187.467 277.018 185.982 278.504C172.089 292.917 152.254 318.77 137.767 341.429C120.68 368.248 113.325 386.597 117.634 391.649L117.783 391.872V392.169C117.783 393.358 118.377 393.804 118.748 394.027C127.218 398.707 179.221 367.133 224.984 339.348C257.301 319.736 287.76 301.237 303.584 294.774C325.203 285.933 345.187 277.167 345.038 272.635C344.964 271.298 342.884 269.961 338.872 268.698L338.649 268.624L338.501 268.475C335.975 265.652 323.494 265.726 310.419 265.801C298.607 265.875 285.234 265.949 274.611 264.166C261.907 261.937 259.975 253.691 258.415 247.005C257.152 241.507 256.187 238.461 251.729 238.461Z" fill="white" fill-opacity="0.05"/>
<path d="M134.572 381.62C133.532 381.62 132.641 381.471 131.972 381.1C131.006 380.654 130.412 379.837 130.189 378.797C128.777 377.608 127.96 375.825 127.737 373.448C126.103 355.024 163.323 303.094 183.753 280.436L187.393 276.498C206.114 257.257 226.173 245.445 241.031 244.925C246.306 244.85 247.42 248.862 248.609 253.022C250.169 258.371 251.877 264.538 261.907 266.172C270.97 267.658 282.56 267.509 292.737 267.435C305.07 267.286 314.95 267.212 318.071 269.738C324.608 271.001 327.654 272.635 327.951 275.013C328.323 278.058 324.608 282.664 295.709 295.368C283.525 300.717 259.901 314.832 234.939 329.691C192.222 355.321 148.167 381.62 134.572 381.62ZM241.254 246.411C241.18 246.411 241.18 246.411 241.105 246.411C235.682 246.559 215.772 249.382 188.433 277.538L184.793 281.476C164.511 303.912 127.515 355.321 129.149 373.299C129.372 375.379 130.04 376.865 131.303 377.831L131.526 377.98V378.277C131.601 379.02 131.972 379.465 132.566 379.763C133.086 380.06 133.829 380.134 134.721 380.134C147.722 380.134 195.416 351.681 234.196 328.502C259.232 313.569 282.931 299.454 295.189 294.031C308.933 288.013 327.134 279.47 326.614 275.087C326.466 273.527 323.42 272.115 317.699 271.001H317.476L317.328 270.852C314.728 268.549 304.03 268.624 292.737 268.772C282.485 268.846 270.896 268.995 261.684 267.509C250.763 265.652 248.832 258.817 247.271 253.32C246.008 248.936 245.117 246.411 241.254 246.411Z" fill="white" fill-opacity="0.05"/>
<path d="M148.242 367.207C147.276 367.207 146.533 367.059 145.864 366.836C144.973 366.464 144.379 365.87 144.081 365.127C142.001 364.013 140.664 362.156 140.144 359.704C138.658 352.646 143.413 340.24 154.259 322.707C164.809 305.695 177.587 289.648 182.564 283.556C183.53 282.367 184.496 281.253 185.461 280.138C200.171 263.572 216.589 253.691 230.482 253.097C235.013 253.022 236.128 256.217 237.316 259.634C238.877 263.869 240.585 268.698 248.906 270.035C256.632 271.224 266.438 271.075 275.056 270.926C285.383 270.778 293.555 270.629 296.675 272.561C305.59 273.452 309.75 275.012 310.196 277.761C310.642 280.287 308.413 284.596 287.166 294.922C278.771 299.008 263.541 307.923 245.934 318.175C200.097 344.92 160.797 367.207 148.242 367.207ZM230.779 254.36C230.705 254.36 230.705 254.36 230.63 254.36C217.109 254.954 200.988 264.612 186.501 280.956C185.61 282.07 184.644 283.184 183.604 284.373C178.627 290.465 165.923 306.512 155.374 323.376C144.824 340.314 139.995 352.795 141.407 359.407C141.853 361.636 143.041 363.196 144.899 364.087L145.121 364.236L145.196 364.533C145.344 365.053 145.716 365.424 146.31 365.722C155.522 369.51 207.452 339.125 245.34 316.987C262.947 306.66 278.176 297.82 286.646 293.659C302.024 286.23 309.527 280.881 309.007 277.91C308.636 275.904 304.401 274.567 296.452 273.749H296.303L296.155 273.675C293.555 271.892 284.64 272.041 275.131 272.189C266.438 272.338 256.558 272.487 248.757 271.298C239.694 269.886 237.762 264.463 236.202 260.08C235.013 256.737 234.196 254.36 230.779 254.36Z" fill="white" fill-opacity="0.05"/>
<path d="M161.837 352.795C161.094 352.795 160.5 352.721 159.98 352.572C159.163 352.349 158.568 351.904 158.122 351.309C155.077 350.269 152.996 348.338 152.105 345.589C148.093 333.554 166.22 307.998 178.255 291.059C179.444 289.425 180.484 287.865 181.524 286.453C182.267 285.488 182.936 284.522 183.679 283.556C194.376 269.738 207.303 261.714 220.081 261.12C223.796 261.046 224.984 263.423 226.173 266.023C227.733 269.144 229.442 272.709 236.054 273.601C242.443 274.492 250.466 274.27 257.598 274.121C265.547 273.972 272.456 273.824 275.353 275.087C286.869 275.31 292.886 276.944 293.703 280.139C294.521 283.482 289.692 288.013 278.845 294.031C275.353 295.963 270.079 299.008 263.913 302.574C233.082 320.404 176.992 352.795 161.837 352.795ZM220.304 262.309C220.23 262.309 220.23 262.309 220.155 262.309C207.674 262.903 195.045 270.778 184.57 284.299C183.901 285.265 183.158 286.23 182.49 287.196C181.524 288.608 180.41 290.168 179.221 291.802C168.077 307.478 149.356 333.777 153.219 345.292C154.036 347.743 155.819 349.378 158.717 350.343L158.94 350.418L159.014 350.641C159.237 351.086 159.683 351.384 160.277 351.532C160.723 351.681 161.317 351.755 161.986 351.755C176.695 351.755 234.791 318.175 263.393 301.683C269.484 298.117 274.759 295.071 278.325 293.139C291.029 286.082 293.109 282.367 292.663 280.51C292.217 278.727 288.874 276.573 275.279 276.275H275.131L275.056 276.201C272.382 274.938 265.25 275.161 257.672 275.31C250.54 275.458 242.443 275.681 235.979 274.79C228.773 273.75 226.767 269.738 225.207 266.543C223.944 264.092 223.053 262.309 220.304 262.309Z" fill="white" fill-opacity="0.05"/>
<path d="M175.358 338.383C173.872 338.383 172.758 338.085 172.089 337.491C167.409 336.6 164.363 334.594 162.951 331.548C159.46 323.673 167.632 310.523 174.763 298.86C176.844 295.517 178.775 292.322 180.335 289.499C180.855 288.682 181.301 287.865 181.673 287.122C188.433 275.904 197.794 269.886 209.532 269.218C212.429 269.143 213.618 270.704 214.955 272.487C216.441 274.492 218.149 276.795 223.127 277.39C228.179 277.91 234.493 277.687 240.139 277.538C246.083 277.315 251.283 277.167 254.032 277.836C264.284 277.315 276.839 277.835 278.474 282.739C279.365 285.487 276.691 289.053 270.376 293.362C261.981 299.083 238.951 312.158 218.075 322.41C202.4 330.062 183.53 338.383 175.358 338.383ZM209.829 270.258C209.754 270.258 209.68 270.258 209.606 270.258C198.239 270.926 189.176 276.795 182.638 287.716C182.267 288.459 181.747 289.276 181.301 290.094C179.741 292.917 177.809 296.111 175.729 299.454C169.043 310.301 160.648 323.822 163.917 331.176C165.18 333.999 167.929 335.782 172.46 336.6H172.609L172.683 336.674C179.592 343.36 251.06 305.249 269.782 292.471C275.576 288.533 278.251 285.265 277.508 282.962C276.393 279.618 267.776 278.058 253.958 278.727H253.883H253.809C251.134 278.058 245.786 278.207 240.139 278.43C234.493 278.653 228.104 278.801 222.978 278.281C217.555 277.687 215.623 275.087 214.138 273.007C212.875 271.446 211.983 270.258 209.829 270.258Z" fill="white" fill-opacity="0.05"/>
<path d="M188.656 324.119C187.616 324.119 186.724 323.97 186.056 323.747C178.627 323.153 174.095 321.296 172.238 318.101C169.712 313.718 172.609 307.7 175.581 301.311C176.918 298.414 178.404 295.442 179.221 292.619C179.444 291.951 179.667 291.356 179.815 290.762C182.713 282.144 188.433 278.133 199.057 277.315C201.137 277.241 202.4 277.984 203.737 278.801C205.223 279.767 206.932 280.807 210.2 281.03C214.063 281.253 218.595 280.956 223.053 280.733C226.693 280.51 230.185 280.361 232.71 280.436C250.466 278.578 262.798 280.436 264.953 285.116C265.918 287.196 264.953 289.722 261.981 292.619C257.226 297.225 241.477 305.695 223.796 313.198C217.258 315.947 197.348 324.119 188.656 324.119ZM199.428 278.207C199.354 278.207 199.205 278.207 199.131 278.207C188.805 278.95 183.456 282.664 180.707 290.985C180.558 291.579 180.335 292.248 180.113 292.917C179.221 295.74 177.809 298.785 176.398 301.683C173.501 307.849 170.678 313.644 172.981 317.655C174.689 320.553 178.998 322.261 186.204 322.856H186.353C195.045 326.273 250.837 302.129 261.387 291.951C264.061 289.351 265.027 287.196 264.21 285.487C262.204 281.179 249.872 279.544 232.785 281.327C230.333 281.179 226.841 281.401 223.201 281.624C218.744 281.847 214.138 282.144 210.275 281.921C206.783 281.699 204.926 280.51 203.366 279.618C202.028 278.801 200.988 278.207 199.428 278.207Z" fill="white" fill-opacity="0.05"/>
<path d="M200.023 309.855C199.948 309.855 200.023 309.855 200.023 309.855C186.65 309.855 180.856 308.963 178.775 306.586C177.438 305.1 177.661 303.243 177.958 300.791C178.181 298.934 178.404 296.78 177.958 294.328C177.513 291.579 177.735 289.722 178.775 288.385C180.707 285.859 185.387 285.562 193.188 284.967C198.017 284.596 204.034 284.15 211.389 283.036C231.596 279.99 249.203 281.624 253.141 286.973C254.181 288.385 254.329 289.945 253.512 291.728C249.575 300.271 211.018 309.855 200.023 309.855ZM230.631 282.293C224.836 282.293 218.298 282.813 211.463 283.853C204.109 284.967 198.091 285.413 193.262 285.785C185.685 286.379 181.153 286.676 179.37 288.905C178.478 290.019 178.255 291.728 178.701 294.254C179.147 296.854 178.924 299.157 178.701 300.94C178.478 303.243 178.255 304.877 179.37 306.14C181.301 308.295 187.022 309.112 200.023 309.112C210.646 309.112 249.129 299.529 252.843 291.505C253.512 290.019 253.438 288.682 252.546 287.493C250.02 284.15 241.7 282.293 230.631 282.293Z" fill="white" fill-opacity="0.05"/>
</svg>
