<svg width="511" height="427" viewBox="0 0 511 427" fill="none" xmlns="http://www.w3.org/2000/svg">
<g filter="url(#filter0_b_1265_940)">
<path d="M571.537 164.138C589.706 136.185 600.296 102.641 600.296 66.5703C600.296 -30.7285 523.371 -109.535 428.545 -109.535C396.076 -109.535 365.704 -100.289 339.847 -84.2697C311.356 -136.252 251.741 -172 182.771 -172C86.1713 -172 7.84841 -101.794 7.84841 -15.1392C7.84841 16.362 18.2234 45.7129 36.0167 70.2795C19.0835 79.0955 7.84841 94.6311 7.84841 112.263C7.84841 137.421 16.9341 157.167 46.5 160.5C45.3174 165.284 46.5 173.393 46.5 178.5C46.5 182.908 49.6399 188.307 50.5 192.5C14.2145 216.529 0 250.954 0 293.26C0 365.778 68.7005 424.533 153.42 424.533C173.364 424.533 192.447 421.254 209.918 415.341C232.227 422.06 256.364 425.77 281.629 425.77C326.516 425.77 368.015 414.105 401.613 394.322C426.61 414.158 458.433 426.038 493.106 426.038C573.364 426.038 638.463 362.391 638.463 283.853C638.409 233.645 611.746 189.457 571.537 164.138Z" fill="url(#paint0_radial_1265_940)" fill-opacity="0.3"/>
<path d="M571.117 163.865L570.841 164.291L571.27 164.561C611.344 189.794 637.909 233.827 637.963 283.853C637.963 362.104 573.099 425.538 493.106 425.538C458.549 425.538 426.835 413.698 401.924 393.931L401.655 393.717L401.359 393.891C367.842 413.627 326.43 425.27 281.629 425.27C256.413 425.27 232.325 421.568 210.062 414.862L209.909 414.816L209.758 414.867C192.339 420.763 173.309 424.033 153.42 424.033C68.9006 424.033 0.5 365.431 0.5 293.26C0.5 251.085 14.6585 216.835 50.7761 192.917L51.0577 192.73L50.9898 192.4C50.6391 190.69 49.9179 188.783 49.1943 186.869C49.0099 186.381 48.8253 185.893 48.6467 185.408C47.7529 182.979 47 180.604 47 178.5C47 176.874 46.8803 174.931 46.7554 172.905C46.6833 171.735 46.6095 170.538 46.556 169.356C46.4081 166.09 46.4135 162.934 46.9854 160.62L47.1221 160.067L46.556 160.003C31.8857 158.349 22.3653 152.637 16.4962 144.279C10.6128 135.9 8.34841 124.793 8.34841 112.263C8.34841 94.8586 19.4398 79.4737 36.2476 70.723L36.7615 70.4554L36.4216 69.9862C18.6857 45.4988 8.34841 16.2493 8.34841 -15.1392C8.34841 -101.468 86.3947 -171.5 182.771 -171.5C251.571 -171.5 311.012 -135.84 339.409 -84.0294L339.662 -83.567L340.11 -83.8447C365.891 -99.8168 396.172 -109.035 428.545 -109.035C523.083 -109.035 599.796 -30.4641 599.796 66.5703C599.796 102.542 589.236 135.991 571.117 163.865Z" stroke="#FFFEFD" stroke-opacity="0.37"/>
</g>
<defs>
<filter id="filter0_b_1265_940" x="-30" y="-202" width="698.463" height="658.038" filterUnits="userSpaceOnUse" color-interpolation-filters="sRGB">
<feFlood flood-opacity="0" result="BackgroundImageFix"/>
<feGaussianBlur in="BackgroundImageFix" stdDeviation="15"/>
<feComposite in2="SourceAlpha" operator="in" result="effect1_backgroundBlur_1265_940"/>
<feBlend mode="normal" in="SourceGraphic" in2="effect1_backgroundBlur_1265_940" result="shape"/>
</filter>
<radialGradient id="paint0_radial_1265_940" cx="0" cy="0" r="1" gradientUnits="userSpaceOnUse" gradientTransform="translate(597.636 -139.727) rotate(128.589) scale(583.584 593.309)">
<stop stop-color="#F3670A" stop-opacity="0.700689"/>
<stop offset="1" stop-color="#F8FFF8" stop-opacity="0.246825"/>
</radialGradient>
</defs>
</svg>
