<svg width="20" height="20" viewBox="0 0 20 20" fill="none" xmlns="http://www.w3.org/2000/svg">
<path d="M17.5169 19.5877C17.1131 19.9645 16.4803 19.9427 16.1035 19.5389L10.7707 13.8249C10.3939 13.4211 9.76109 13.3993 9.35733 13.7761L3.7329 19.0252C3.32913 19.4021 2.69634 19.3802 2.31952 18.9765L0.593019 17.1265C0.216197 16.7228 0.238036 16.09 0.641798 15.7131L6.26623 10.464C6.67 10.0872 6.69184 9.45438 6.31501 9.05062L0.982228 3.33658C0.605406 2.93281 0.627247 2.30003 1.03101 1.9232L2.69646 0.368881C3.10022 -0.0079408 3.73301 0.0138984 4.10983 0.41766L9.44261 6.13171C9.81944 6.53547 10.4522 6.55731 10.856 6.18049L16.52 0.894382C16.9238 0.51756 17.5566 0.5394 17.9334 0.943162L19.6599 2.7931C20.0367 3.19686 20.0149 3.82965 19.6111 4.20647L13.9471 9.49258C13.5433 9.8694 13.5215 10.5022 13.8983 10.9059L19.2311 16.62C19.6079 17.0238 19.5861 17.6565 19.1823 18.0334L17.5169 19.5877Z" fill="#A9AAAD"/>
</svg>
