<svg width="367" height="80" viewBox="0 0 367 80" fill="none" xmlns="http://www.w3.org/2000/svg">
<path d="M366 79.2141H0.324219C0.324219 79.2141 9.04363 51.2739 39.0171 55.6855C39.0171 55.6855 84.2498 -20.783 162.726 12.3042C195.969 26.2744 178.53 50.5385 178.53 50.5385C178.53 50.5385 224.308 9.36315 242.292 23.3333C260.276 37.3035 234.117 47.5975 234.117 47.5975C234.117 47.5975 320.767 34.3624 316.408 52.7443C312.048 70.3908 278.805 68.185 278.805 68.185L366 79.2141Z" fill="#EEEDFC"/>
<path d="M367 75.2141H1.32422C1.32422 75.2141 10.0436 47.2739 40.0171 51.6855C40.0171 51.6855 85.2498 -24.783 163.726 8.30424C196.969 22.2744 179.53 46.5385 179.53 46.5385C179.53 46.5385 225.308 5.36315 243.292 19.3333C261.276 33.3035 235.117 43.5975 235.117 43.5975C235.117 43.5975 321.767 30.3624 317.408 48.7443C313.048 66.3908 279.805 64.185 279.805 64.185L367 75.2141Z" fill="#EEEDFC"/>
</svg>
