<svg width="112" height="111" viewBox="0 0 112 111" fill="none" xmlns="http://www.w3.org/2000/svg">
<g filter="url(#filter0_d_1265_955)">
<rect x="18" y="9" width="76" height="76" rx="23.3182" fill="#78BFD3"/>
</g>
<path d="M65.1041 30.5205C65.1041 29.9209 64.618 29.4348 64.0184 29.4348H59.929C59.3294 29.4348 58.8433 29.9209 58.8433 30.5205V51.3054C58.8433 51.905 59.3294 52.3911 59.929 52.3911H64.0184C64.618 52.3911 65.1041 51.905 65.1041 51.3054V30.5205ZM63.0171 51.3477H60.9302C60.3563 51.3477 59.8867 50.8781 59.8867 50.3042C59.8867 49.7303 60.3563 49.2607 60.9302 49.2607H63.0171C63.591 49.2607 64.0606 49.7303 64.0606 50.3042C64.0606 50.8781 63.591 51.3477 63.0171 51.3477ZM63.0171 32.5652H60.9302C60.3563 32.5652 59.8867 32.0957 59.8867 31.5218C59.8867 30.9478 60.3563 30.4783 60.9302 30.4783H63.0171C63.591 30.4783 64.0606 30.9478 64.0606 31.5218C64.0606 32.0957 63.591 32.5652 63.0171 32.5652Z" fill="white"/>
<path d="M42.7827 62.9565V60.7824C42.7827 60.2061 42.3156 59.7389 41.7393 59.7389C41.163 59.7389 40.6958 60.2061 40.6958 60.7824V62.9565C40.6958 63.5328 41.163 64 41.7393 64C42.3156 64 42.7827 63.5328 42.7827 62.9565Z" fill="white"/>
<path d="M71.3042 62.9562V60.782C71.3042 60.2057 70.837 59.7385 70.2608 59.7385C69.6845 59.7385 69.2173 60.2057 69.2173 60.782V62.9562C69.2173 63.5325 69.6845 63.9996 70.2608 63.9996C70.837 63.9996 71.3042 63.5325 71.3042 62.9562Z" fill="white"/>
<path d="M36.0436 54.4775H75.9562C76.3628 54.4775 76.6954 54.9471 76.6954 55.521V57.6079C76.6954 58.1819 76.3628 58.6514 75.9562 58.6514H36.0436C35.637 58.6514 35.3044 58.1819 35.3044 57.6079V55.521C35.3044 54.9471 35.637 54.4775 36.0436 54.4775Z" fill="white"/>
<path d="M73.452 30.5205C73.452 29.9209 72.9659 29.4348 72.3663 29.4348H68.2769C67.6773 29.4348 67.1912 29.9209 67.1912 30.5205V51.3054C67.1912 51.905 67.6773 52.3911 68.2769 52.3911H72.3663C72.9659 52.3911 73.452 51.905 73.452 51.3054V30.5205ZM71.365 51.3477H69.2781C68.7042 51.3477 68.2346 50.8781 68.2346 50.3042C68.2346 49.7303 68.7042 49.2607 69.2781 49.2607H71.365C71.9389 49.2607 72.4085 49.7303 72.4085 50.3042C72.4085 50.8781 71.9389 51.3477 71.365 51.3477ZM71.365 32.5652H69.2781C68.7042 32.5652 68.2346 32.0957 68.2346 31.5218C68.2346 30.9478 68.7042 30.4783 69.2781 30.4783H71.365C71.9389 30.4783 72.4085 30.9478 72.4085 31.5218C72.4085 32.0957 71.9389 32.5652 71.365 32.5652Z" fill="white"/>
<path d="M50.853 29.5424C50.3338 29.2428 49.67 29.4207 49.3703 29.9399L38.9779 47.9375C38.678 48.4569 38.8561 49.1211 39.3756 49.4208L42.9208 51.4661C43.44 51.7657 44.1038 51.5877 44.4036 51.0686L54.7959 33.071C55.0958 32.5516 54.9177 31.8874 54.3982 31.5876L50.853 29.5424ZM43.9913 49.6781C43.8522 49.9215 43.6261 50.0955 43.3565 50.165C43.0869 50.2346 42.8 50.1998 42.5652 50.0607L40.7565 49.0172C40.2609 48.7303 40.0957 48.0955 40.3826 47.5911C40.6696 47.0955 41.3044 46.9216 41.8 47.2085L43.6087 48.252C44.113 48.539 44.2782 49.1824 43.9913 49.6781ZM52.4782 33.9391C52.2956 33.9391 52.113 33.8956 51.9564 33.8L50.1478 32.7565C49.6521 32.4695 49.4782 31.8261 49.7651 31.3304C50.0521 30.8348 50.6956 30.6609 51.1912 30.9478L52.9999 31.9913C53.4086 32.2261 53.6086 32.7043 53.4869 33.1652C53.3651 33.6174 52.9477 33.9391 52.4782 33.9391Z" fill="white"/>
<defs>
<filter id="filter0_d_1265_955" x="0.727272" y="0.363636" width="110.545" height="110.545" filterUnits="userSpaceOnUse" color-interpolation-filters="sRGB">
<feFlood flood-opacity="0" result="BackgroundImageFix"/>
<feColorMatrix in="SourceAlpha" type="matrix" values="0 0 0 0 0 0 0 0 0 0 0 0 0 0 0 0 0 0 127 0" result="hardAlpha"/>
<feOffset dy="8.63636"/>
<feGaussianBlur stdDeviation="8.63636"/>
<feComposite in2="hardAlpha" operator="out"/>
<feColorMatrix type="matrix" values="0 0 0 0 0.110243 0 0 0 0 0.177271 0 0 0 0 0.529167 0 0 0 0.26 0"/>
<feBlend mode="normal" in2="BackgroundImageFix" result="effect1_dropShadow_1265_955"/>
<feBlend mode="normal" in="SourceGraphic" in2="effect1_dropShadow_1265_955" result="shape"/>
</filter>
</defs>
</svg>
