<svg width="112" height="111" viewBox="0 0 112 111" fill="none" xmlns="http://www.w3.org/2000/svg">
<g filter="url(#filter0_d_1265_947)">
<rect x="18" y="9" width="76" height="76" rx="23.3182" fill="#F73E91"/>
</g>
<path fill-rule="evenodd" clip-rule="evenodd" d="M56.9702 31.875H66.5252C69.2176 31.875 71.4002 34.0576 71.4002 36.75V55.0963C71.4002 57.7886 69.2176 59.9713 66.5252 59.9713H56.9702C54.2778 59.9713 52.0952 57.7886 52.0952 55.0963V49.4412H55.8652C57.6601 49.4412 59.1152 47.9862 59.1152 46.1913V45.655C59.1152 43.8601 57.6601 42.405 55.8652 42.405H52.0952V36.75C52.0952 34.0576 54.2778 31.875 56.9702 31.875ZM60.7889 39.415H66.2327C66.9058 39.415 67.4514 38.8694 67.4514 38.1963C67.4514 37.5232 66.9058 36.9775 66.2327 36.9775H60.7889C60.1158 36.9775 59.5702 37.5232 59.5702 38.1963C59.5702 38.8694 60.1158 39.415 60.7889 39.415Z" fill="white"/>
<path d="M56.0764 43.9812H52.1277V47.8812H56.0764C56.8931 47.8812 57.5552 47.2191 57.5552 46.4025V45.46C57.5552 44.6433 56.8931 43.9812 56.0764 43.9812V43.9812Z" fill="white"/>
<path fill-rule="evenodd" clip-rule="evenodd" d="M39.7615 37.4488C39.5747 34.6283 41.6888 32.1812 44.5065 31.9563C47.3089 32.1979 49.3995 34.6428 49.2027 37.4488V52.5938C49.2179 53.37 49.0031 54.1333 48.5852 54.7875L45.5465 59.4838C45.3312 59.8697 44.924 60.1089 44.4821 60.1089C44.0402 60.1089 43.633 59.8697 43.4177 59.4838L40.379 54.7875C39.968 54.1302 39.7538 53.369 39.7615 52.5938V37.4488ZM44.4903 43.4938C45.1634 43.4938 45.7091 42.9481 45.7091 42.275V36.6525C45.7135 36.328 45.5865 36.0154 45.357 35.7859C45.1274 35.5563 44.8149 35.4293 44.4903 35.4338C43.8172 35.4338 43.2716 35.9794 43.2716 36.6525V42.275C43.2716 42.9481 43.8172 43.4938 44.4903 43.4938Z" fill="white"/>
<defs>
<filter id="filter0_d_1265_947" x="0.727272" y="0.363636" width="110.545" height="110.545" filterUnits="userSpaceOnUse" color-interpolation-filters="sRGB">
<feFlood flood-opacity="0" result="BackgroundImageFix"/>
<feColorMatrix in="SourceAlpha" type="matrix" values="0 0 0 0 0 0 0 0 0 0 0 0 0 0 0 0 0 0 127 0" result="hardAlpha"/>
<feOffset dy="8.63636"/>
<feGaussianBlur stdDeviation="8.63636"/>
<feComposite in2="hardAlpha" operator="out"/>
<feColorMatrix type="matrix" values="0 0 0 0 0.110243 0 0 0 0 0.177271 0 0 0 0 0.529167 0 0 0 0.26 0"/>
<feBlend mode="normal" in2="BackgroundImageFix" result="effect1_dropShadow_1265_947"/>
<feBlend mode="normal" in="SourceGraphic" in2="effect1_dropShadow_1265_947" result="shape"/>
</filter>
</defs>
</svg>
